<svg version="1.1" id="Layer_1" xmlns="http://www.w3.org/2000/svg" xmlns:xlink="http://www.w3.org/1999/xlink" x="0px" y="0px"
	 width="100%" viewBox="0 0 487 487" enable-background="new 0 0 487 487" xml:space="preserve">
<path fill="#070606" opacity="1.000000" stroke="none" 
	d="
M222.000000,488.000000 
	C148.000015,488.000000 74.500038,488.000000 1.000039,488.000000 
	C1.000026,325.666718 1.000026,163.333450 1.000013,1.000127 
	C163.333237,1.000084 325.666473,1.000084 487.999817,1.000042 
	C487.999878,163.333206 487.999878,325.666412 487.999939,487.999817 
	C399.500000,488.000000 311.000000,488.000000 222.000000,488.000000 
M195.045273,181.500000 
	C195.042816,243.981445 195.071014,306.462952 194.970459,368.944214 
	C194.963593,373.211182 195.782135,375.123230 200.690903,375.092194 
	C232.846680,374.888916 265.004639,375.044769 297.161163,374.906586 
	C299.250244,374.897614 301.884003,373.975952 303.336609,372.540192 
	C327.623871,348.534180 351.785522,324.400696 375.871613,300.192566 
	C377.129120,298.928711 378.107880,296.752594 378.126770,294.989502 
	C378.314056,277.496948 378.213898,260.001465 378.342041,242.507919 
	C378.367920,238.976486 376.918030,237.959549 373.571777,237.964844 
	C334.584595,238.026230 295.597229,238.017471 256.610138,237.922379 
	C253.127487,237.913879 251.917343,239.141220 251.982376,242.590775 
	C252.148773,251.418350 252.318344,260.262848 251.940140,269.077118 
	C251.722549,274.147705 253.335602,275.598816 258.412170,275.561707 
	C283.901825,275.375397 309.394562,275.535065 334.885162,275.715790 
	C336.623108,275.728119 339.551392,276.576874 339.837677,277.613403 
	C340.440338,279.795685 339.904022,282.421936 339.334656,284.743256 
	C339.054901,285.883850 337.704071,286.796112 336.761230,287.734619 
	C320.941650,303.480988 305.186829,319.294250 289.179108,334.847137 
	C287.277100,336.695068 283.997040,337.980316 281.324677,338.036102 
	C267.502075,338.324615 253.669357,338.135925 239.840210,338.097595 
	C233.164932,338.079102 233.103546,338.063171 233.099396,331.567017 
	C233.062866,274.417206 233.100983,217.267273 232.934128,160.117905 
	C232.920609,155.493332 234.641083,154.539505 238.782349,154.603378 
	C251.608444,154.801208 264.453613,155.024826 277.262512,154.514313 
	C283.219696,154.276917 287.195343,156.355682 291.141937,160.467026 
	C301.277069,171.025284 311.773987,181.236282 322.689667,192.149338 
	C330.289948,184.608673 337.571442,177.120560 345.172363,169.972122 
	C348.231934,167.094681 348.176331,165.304642 345.175385,162.418488 
	C330.768951,148.563171 316.628418,134.430939 302.183624,120.616478 
	C300.500397,119.006683 297.523193,117.999565 295.138977,117.986641 
	C263.815979,117.816734 232.491150,117.971512 201.168457,117.777260 
	C196.322311,117.747215 194.878235,119.241150 194.937012,124.018394 
	C195.168579,142.843185 195.040253,161.672424 195.045273,181.500000 
M155.401352,336.501343 
	C155.349136,295.848541 155.329300,255.195663 155.188431,214.543182 
	C155.176041,210.966141 156.011078,208.204315 158.731430,205.715408 
	C163.150955,201.671921 167.458221,197.459137 171.382889,192.944046 
	C172.969879,191.118301 174.230865,188.321259 174.265579,185.946121 
	C174.484726,170.954987 174.328094,155.958160 174.256683,140.963394 
	C174.251465,139.865906 173.940018,138.769867 173.687500,137.131882 
	C172.513855,137.975067 171.661789,138.431702 171.002655,139.083435 
	C153.590881,156.299347 136.148331,173.485046 118.899544,190.863022 
	C117.509560,192.263397 116.928444,195.001587 116.899940,197.130524 
	C116.730400,209.790543 116.844505,222.454239 116.844566,235.116699 
	C116.844780,279.435394 116.833282,323.754059 116.837074,368.072754 
	C116.837662,374.929199 116.863724,374.967316 123.760422,375.000519 
	C132.257401,375.041382 140.764969,374.760651 149.247879,375.108704 
	C154.003952,375.303864 155.704178,373.909698 155.542328,368.987305 
	C155.197556,358.501740 155.415131,347.997742 155.401352,336.501343 
z"/>
<path fill="#E30E13" opacity="1.000000" stroke="none" 
	d="
M195.045380,181.000000 
	C195.040253,161.672424 195.168579,142.843185 194.937012,124.018394 
	C194.878235,119.241150 196.322311,117.747215 201.168457,117.777260 
	C232.491150,117.971512 263.815979,117.816734 295.138977,117.986641 
	C297.523193,117.999565 300.500397,119.006683 302.183624,120.616478 
	C316.628418,134.430939 330.768951,148.563171 345.175385,162.418488 
	C348.176331,165.304642 348.231934,167.094681 345.172363,169.972122 
	C337.571442,177.120560 330.289948,184.608673 322.689667,192.149338 
	C311.773987,181.236282 301.277069,171.025284 291.141937,160.467026 
	C287.195343,156.355682 283.219696,154.276917 277.262512,154.514313 
	C264.453613,155.024826 251.608444,154.801208 238.782349,154.603378 
	C234.641083,154.539505 232.920609,155.493332 232.934128,160.117905 
	C233.100983,217.267273 233.062866,274.417206 233.099396,331.567017 
	C233.103546,338.063171 233.164932,338.079102 239.840210,338.097595 
	C253.669357,338.135925 267.502075,338.324615 281.324677,338.036102 
	C283.997040,337.980316 287.277100,336.695068 289.179108,334.847137 
	C305.186829,319.294250 320.941650,303.480988 336.761230,287.734619 
	C337.704071,286.796112 339.054901,285.883850 339.334656,284.743256 
	C339.904022,282.421936 340.440338,279.795685 339.837677,277.613403 
	C339.551392,276.576874 336.623108,275.728119 334.885162,275.715790 
	C309.394562,275.535065 283.901825,275.375397 258.412170,275.561707 
	C253.335602,275.598816 251.722549,274.147705 251.940140,269.077118 
	C252.318344,260.262848 252.148773,251.418350 251.982376,242.590775 
	C251.917343,239.141220 253.127487,237.913879 256.610138,237.922379 
	C295.597229,238.017471 334.584595,238.026230 373.571777,237.964844 
	C376.918030,237.959549 378.367920,238.976486 378.342041,242.507919 
	C378.213898,260.001465 378.314056,277.496948 378.126770,294.989502 
	C378.107880,296.752594 377.129120,298.928711 375.871613,300.192566 
	C351.785522,324.400696 327.623871,348.534180 303.336609,372.540192 
	C301.884003,373.975952 299.250244,374.897614 297.161163,374.906586 
	C265.004639,375.044769 232.846680,374.888916 200.690903,375.092194 
	C195.782135,375.123230 194.963593,373.211182 194.970459,368.944214 
	C195.071014,306.462952 195.042816,243.981445 195.045380,181.000000 
z"/>
<path fill="#E30F12" opacity="1.000000" stroke="none" 
	d="
M155.401794,337.001312 
	C155.415131,347.997742 155.197556,358.501740 155.542328,368.987305 
	C155.704178,373.909698 154.003952,375.303864 149.247879,375.108704 
	C140.764969,374.760651 132.257401,375.041382 123.760422,375.000519 
	C116.863724,374.967316 116.837662,374.929199 116.837074,368.072754 
	C116.833282,323.754059 116.844780,279.435394 116.844566,235.116699 
	C116.844505,222.454239 116.730400,209.790543 116.899940,197.130524 
	C116.928444,195.001587 117.509560,192.263397 118.899544,190.863022 
	C136.148331,173.485046 153.590881,156.299347 171.002655,139.083435 
	C171.661789,138.431702 172.513855,137.975067 173.687500,137.131882 
	C173.940018,138.769867 174.251465,139.865906 174.256683,140.963394 
	C174.328094,155.958160 174.484726,170.954987 174.265579,185.946121 
	C174.230865,188.321259 172.969879,191.118301 171.382889,192.944046 
	C167.458221,197.459137 163.150955,201.671921 158.731430,205.715408 
	C156.011078,208.204315 155.176041,210.966141 155.188431,214.543182 
	C155.329300,255.195663 155.349136,295.848541 155.401794,337.001312 
z"/>
</svg>